{"title":"Shoot.On.Sight.2007.NORDiC.x264.AC3(5.1).mkv.Zen_Bud","uid":5776768,"size":1541103540,"categoryP":"video","categoryS":"movies","magnet":"?xt=urn:btih:1afcd173eb0599c98207ccb911fc64e465b18e7d&amp;dn=Shoot.On.Sight.2007.NORDiC.x264.AC3%285.1%29.mkv.Zen_Bud&amp;tr=udp%3A%2F%2Ftracker.openbittorrent.com%3A80&amp;tr=udp%3A%2F%2Fopen.demonii.com%3A1337&amp;tr=udp%3A%2F%2Ftracker.coppersurfer.tk%3A6969&amp;tr=udp%3A%2F%2Fexodus.desync.com%3A6969","seeders":0,"leechers":1,"uploader":"Zen_Bud","files":-1,"time":1282291509,"description":"General\nComplete name           Shoot.On.Sight.2007.NORDiC.x264.AC3(5.1).mkv.Zen_Bud\nFormat                           : Matroska\nFile size                        : 1.44 GiB\nDuration                         : 1h 49mn\nOverall bit rate                 : 1 871 Kbps\nWriting application              : HandBrake svn3482\nWriting library                  : libmkv 0.6.4.1\n\nVideo\n\nFormat                           : AVC\nDuration                         : 1h 49mn\nBit rate                         : 1 386 Kbps\nWidth                            : 706 pixels\nHeight                           : 572 pixels\nDisplay aspect ratio             : 16:9\nStream size                      : 1.06 GiB (74%)\nWriting library                  : x264 core 104\n\n\nAudio\n\nFormat                           : AC-3\nDuration                         : 1h 49mn\nBit rate                         : 448 Kbps\nChannel(s)                       : 6 channels\nChannel positions                : Front: L C R, Side: L R, LFE\nSampling rate                    : 48.0 KHz\nStream size                      : 352 MiB (24%)\nLanguage                         : English\n\nText #1\nLanguage                         : Swedish\n\nText #2\nLanguage                         : Norwegian\n\nText #3\nLanguage                         : Danish\n\nText #4\nLanguage                         : Finnish\n\nMenu\n00:00:00.000                     : Chapter  1\n00:09:15.480                     : Chapter  2\n\n","torrent":{"xt":"urn:btih:1afcd173eb0599c98207ccb911fc64e465b18e7d","amp;dn":"Shoot.On.Sight.2007.NORDiC.x264.AC3%285.1%29.mkv.Zen_Bud","amp;tr":["udp%3A%2F%2Ftracker.openbittorrent.com%3A80","udp%3A%2F%2Fopen.demonii.com%3A1337","udp%3A%2F%2Ftracker.coppersurfer.tk%3A6969","udp%3A%2F%2Fexodus.desync.com%3A6969"],"infoHash":"1afcd173eb0599c98207ccb911fc64e465b18e7d","infoHashBuffer":{"type":"Buffer","data":[26,252,209,115,235,5,153,201,130,7,204,185,17,252,100,228,101,177,142,125]},"announce":[],"urlList":[]}}